<?xml version="1.0" standalone="no"?>
<!DOCTYPE svg PUBLIC "-//W3C//DTD SVG 20010904//EN"
 "http://www.w3.org/TR/2001/REC-SVG-20010904/DTD/svg10.dtd">
<svg version="1.0" xmlns="http://www.w3.org/2000/svg"
 width="1280.000000pt" height="1112.000000pt" viewBox="0 0 1280.000000 1112.000000"
 preserveAspectRatio="xMidYMid meet">
<metadata>
Created by potrace 1.15, written by Peter Selinger 2001-2017
</metadata>
<g transform="translate(0.000000,1112.000000) scale(0.100000,-0.100000)"
fill="#000000" stroke="none">
<path d="M10621 11078 c13 -18 56 -70 95 -115 126 -146 174 -281 174 -497 0
-183 -42 -355 -131 -541 -84 -176 -173 -280 -364 -423 -517 -387 -1263 -660
-2365 -867 -803 -150 -891 -169 -1165 -250 -929 -274 -1507 -589 -1748 -952
-62 -93 -156 -292 -196 -413 -202 -622 -58 -1046 388 -1135 l34 -7 -6 48 c-3
27 -26 95 -51 150 -57 126 -66 172 -66 340 0 367 138 672 445 980 126 126 134
132 260 196 360 182 704 270 1555 399 1025 154 1641 300 2190 516 230 91 377
167 730 378 256 153 514 295 535 295 10 0 -67 -145 -120 -225 -174 -266 -438
-477 -895 -717 -128 -67 -819 -393 -1057 -499 -235 -104 -453 -185 -731 -274
-151 -47 -324 -106 -386 -129 -235 -91 -426 -207 -426 -258 0 -10 6 -18 14
-18 22 0 770 154 1051 216 1139 253 1852 511 2370 857 130 88 216 157 334 271
255 248 397 501 461 817 44 223 34 426 -29 553 -28 57 -106 155 -115 145 -2
-2 -15 -47 -30 -100 -46 -170 -101 -285 -175 -362 -33 -36 -108 -83 -117 -75
-6 6 30 94 120 295 143 322 185 463 186 625 0 117 -13 176 -66 286 -38 78 -59
107 -132 181 -93 93 -207 174 -338 239 -90 45 -185 85 -228 96 l-28 7 23 -33z"/>
<path d="M11519 10163 c10 -16 63 -80 115 -143 224 -268 278 -405 255 -649
-16 -171 -69 -325 -173 -500 -152 -257 -442 -549 -745 -748 -333 -220 -714
-396 -1406 -649 -195 -71 -298 -114 -278 -114 18 0 112 7 210 15 1257 109
2166 371 2648 765 251 205 506 569 599 855 59 182 71 401 30 550 -50 187 -205
355 -433 469 -199 101 -539 176 -794 176 l-48 0 20 -27z"/>
<path d="M9805 8370 c-93 -47 -208 -101 -255 -119 -330 -128 -509 -181 -1405
-420 -662 -176 -992 -289 -1304 -445 -231 -115 -391 -226 -536 -371 -193 -193
-309 -426 -345 -693 -11 -79 -11 -94 2 -105 8 -7 31 -34 52 -60 44 -56 80 -82
101 -73 13 5 12 10 -5 38 -29 48 -26 120 11 233 16 53 33 115 37 137 7 39 17
50 117 131 235 190 551 381 940 569 322 155 655 292 1285 528 584 219 883 346
1132 480 176 95 365 215 379 241 19 36 -32 19 -206 -71z"/>
<path d="M4519 6576 c-15 -14 -458 -54 -1019 -91 -826 -54 -1210 -103 -1500
-191 -131 -40 -204 -77 -266 -136 -73 -69 -87 -98 -82 -165 7 -77 55 -141 226
-296 234 -214 286 -296 512 -807 215 -485 480 -1061 637 -1385 202 -415 260
-542 337 -738 111 -279 161 -462 201 -737 39 -262 59 -327 125 -416 176 -234
879 -374 1730 -344 569 20 1047 87 1466 206 23 6 93 124 158 265 37 79 86 235
86 273 0 36 12 43 91 54 107 16 202 54 281 112 64 47 97 85 288 330 86 111
161 170 323 258 74 39 138 72 142 72 3 0 -7 -12 -24 -26 -79 -66 -127 -250
-83 -320 37 -58 94 -76 276 -85 295 -14 644 -106 900 -237 88 -45 89 -46 60
-55 -49 -16 -310 -12 -416 6 -53 9 -199 41 -325 71 -387 93 -518 109 -674 87
-90 -14 -223 -60 -255 -89 -10 -10 -28 -22 -39 -26 -18 -8 -15 -11 21 -27 23
-10 86 -30 140 -43 93 -24 152 -34 579 -101 272 -43 446 -93 563 -161 43 -25
44 -28 24 -35 -46 -17 -200 -30 -282 -24 -47 4 -182 20 -300 37 -354 51 -518
44 -652 -29 -59 -32 -117 -90 -97 -97 38 -14 189 -48 314 -71 184 -35 334 -71
419 -103 67 -25 68 -25 43 -39 -70 -36 -148 -45 -507 -52 -389 -9 -426 -14
-519 -72 -28 -17 -51 -35 -51 -40 0 -17 75 -58 135 -74 74 -19 144 -19 310 0
170 19 295 20 295 1 0 -23 -44 -79 -76 -98 -33 -19 -125 -33 -289 -45 -127 -8
-87 -20 75 -22 237 -2 538 29 820 85 635 125 1184 372 1504 675 81 77 86 83
86 123 0 29 -13 69 -40 125 -22 45 -43 101 -47 123 l-6 41 32 -19 c167 -98
235 -424 122 -588 -105 -153 -431 -322 -877 -456 -921 -277 -1898 -464 -2989
-571 -365 -36 -1178 -29 -1955 17 -995 58 -1408 113 -2190 290 -971 220 -1552
434 -1762 651 -65 67 -89 124 -95 236 -11 178 62 343 177 402 l30 15 -6 -32
c-3 -18 -23 -71 -45 -117 -21 -46 -42 -100 -45 -122 -8 -45 8 -67 120 -167
393 -354 1122 -629 1867 -706 193 -20 448 -29 534 -18 l70 8 -90 7 c-277 21
-328 36 -365 111 l-20 41 77 3 c43 2 150 -4 238 -13 220 -24 314 -13 394 46
l42 30 -23 18 c-43 33 -107 61 -180 77 -57 13 -142 17 -388 19 -321 3 -417 12
-485 48 l-27 14 53 21 c81 33 220 67 470 116 125 25 241 51 259 58 l33 14 -44
36 c-148 122 -310 141 -690 84 -321 -49 -488 -54 -613 -18 -29 8 -27 9 50 49
151 78 298 115 689 173 270 40 398 65 513 102 l93 29 -25 20 c-36 29 -162 84
-226 100 -77 19 -301 17 -420 -5 -52 -9 -178 -37 -280 -61 -380 -91 -520 -110
-693 -95 -54 4 -101 10 -103 13 -14 14 229 125 374 171 323 102 683 155 1317
196 88 5 175 10 194 10 l34 0 -6 74 c-26 299 -241 418 -692 386 -779 -57
-1639 -266 -2125 -516 -206 -106 -299 -195 -385 -369 -62 -125 -79 -199 -72
-305 23 -316 255 -553 752 -767 93 -40 679 -267 839 -324 257 -93 571 -175
931 -244 207 -40 276 -58 505 -135 146 -48 300 -96 343 -104 138 -29 323 -45
671 -61 502 -22 607 -31 871 -75 194 -32 365 -48 365 -33 0 6 79 12 198 16
153 4 237 12 377 36 285 47 316 50 1010 81 271 12 449 32 560 61 44 11 186 56
315 100 202 69 274 88 510 135 522 104 736 167 1340 399 380 146 445 172 584
241 273 137 441 283 526 459 91 189 85 362 -18 560 -115 218 -297 343 -732
502 -311 114 -895 257 -1230 303 -101 14 -272 14 -317 1 -47 -14 -41 -5 20 25
161 82 577 352 762 496 151 117 372 335 459 453 78 107 167 280 196 385 116
412 -116 872 -510 1011 -264 93 -459 73 -583 -60 -59 -64 -94 -131 -168 -320
-28 -72 -62 -151 -76 -176 -26 -47 -90 -121 -98 -114 -7 8 15 90 70 266 82
254 95 314 102 449 6 120 6 122 -18 137 -13 9 -55 23 -94 32 -69 16 -115 37
-115 54 0 17 120 71 279 126 91 31 178 63 193 71 46 24 110 86 125 121 17 42
17 115 -1 157 -84 201 -743 410 -1546 492 -93 9 -304 18 -531 21 l-376 6 -46
-27 c-98 -58 -180 -152 -189 -216 -3 -22 1 -25 47 -32 296 -44 861 -85 1425
-103 96 -3 220 -8 275 -10 126 -7 110 5 -55 40 -181 38 -350 60 -754 100 -197
20 -399 42 -450 49 l-91 13 105 2 c250 2 737 -30 975 -65 142 -21 314 -61 414
-96 94 -33 241 -104 241 -116 0 -10 -81 -62 -149 -96 -411 -208 -1154 -294
-2296 -267 -253 7 -797 16 -1210 21 -1194 16 -1573 42 -1973 135 -291 69 -412
139 -412 240 0 38 27 85 49 85 11 0 48 -29 83 -63 42 -41 75 -66 96 -70 37 -7
99 3 231 39 349 95 490 110 1321 139 223 8 449 18 503 21 111 8 103 -3 87 122
-14 106 -27 146 -56 176 -23 22 -35 26 -84 26 -31 0 -59 -2 -61 -4z m-2479
-482 c291 -241 581 -352 1006 -385 l159 -13 -45 -15 c-75 -25 -467 -20 -646 7
-170 26 -276 53 -354 88 -107 48 -213 185 -227 294 -12 84 25 92 107 24z m308
-434 c509 -129 1125 -210 1917 -250 553 -28 1620 -31 2235 -5 74 3 252 10 395
15 143 6 289 13 325 16 106 10 64 -4 -107 -36 -304 -55 -640 -90 -1088 -111
-282 -13 -1267 -7 -1555 10 -487 29 -876 59 -1495 116 -459 43 -652 102 -745
229 -33 45 -38 61 -14 52 9 -3 68 -19 132 -36z m443 -379 c73 -16 287 -39 479
-51 448 -28 658 -48 780 -76 99 -22 200 -56 200 -66 0 -11 -663 -3 -895 12
-201 12 -603 48 -627 56 -15 4 -18 17 -18 75 0 62 2 70 18 65 9 -3 38 -10 63
-15z m309 -305 c335 -61 411 -68 630 -60 210 7 251 1 299 -48 17 -17 31 -35
31 -40 0 -11 -715 -10 -895 2 -149 10 -311 31 -392 52 l-43 10 0 71 0 70 63
-7 c34 -3 172 -26 307 -50z m6275 -145 c137 -67 206 -204 191 -377 -12 -149
-81 -297 -205 -443 -70 -83 -214 -207 -415 -358 -228 -172 -314 -241 -396
-319 -61 -57 -72 -63 -181 -98 -344 -110 -644 -330 -943 -693 -37 -46 -69 -83
-71 -83 -4 0 67 194 100 270 52 122 198 405 331 642 292 519 349 626 440 833
l53 120 60 21 c104 36 167 83 298 219 251 263 336 309 561 301 102 -3 118 -6
177 -35z m-6351 -121 c61 -5 237 -14 391 -20 401 -15 618 -42 735 -93 34 -15
29 -15 -105 -16 -77 -1 -270 -6 -428 -12 -392 -15 -614 4 -761 65 -33 14 -36
18 -36 57 l0 42 46 -7 c26 -3 96 -10 158 -16z m14 -265 c141 -21 281 -32 602
-50 368 -20 660 -49 660 -66 0 -13 -129 -32 -275 -38 -82 -4 -251 -4 -375 0
-124 4 -333 8 -466 8 l-240 1 -22 45 c-12 25 -25 64 -28 86 -7 42 -7 42 20 35
15 -4 71 -13 124 -21z m452 -315 c299 -11 466 -24 590 -45 89 -16 207 -47 235
-63 41 -22 -206 -27 -856 -15 l-374 6 -37 44 c-23 26 -38 55 -38 70 l0 26 108
-7 c59 -3 226 -10 372 -16z m-97 -280 c122 -6 358 -22 523 -35 166 -14 311
-25 323 -25 37 0 23 -17 -33 -38 -120 -46 -231 -49 -824 -26 l-163 7 -18 36
c-11 20 -28 45 -40 55 -25 23 -27 36 -5 36 8 0 115 -5 237 -10z m397 -281
c288 -18 543 -53 537 -73 -2 -6 -30 -22 -63 -36 l-59 -25 -422 0 -422 0 -11
44 c-6 25 -20 57 -31 72 -10 15 -19 30 -19 34 0 8 238 0 490 -16z m-179 -298
c41 -6 206 -13 368 -16 353 -6 447 -19 524 -71 17 -11 14 -13 -20 -18 -123
-18 -329 -29 -553 -30 -294 -1 -434 9 -426 29 3 8 -8 39 -25 70 -16 31 -27 60
-24 65 3 5 22 3 44 -5 21 -7 72 -18 112 -24z m194 -311 c61 -6 306 -16 545
-22 515 -13 470 -11 470 -19 0 -8 -83 -44 -135 -58 -89 -23 -196 -32 -550 -45
l-370 -14 -42 47 c-23 25 -47 58 -54 73 -13 31 -6 60 13 53 7 -2 63 -9 123
-15z m550 -300 c281 -4 521 -12 534 -17 23 -9 23 -10 -20 -31 -126 -61 -305
-82 -694 -82 -316 0 -345 3 -345 33 0 11 -9 35 -21 54 -25 41 -19 68 14 58 12
-4 252 -10 532 -15z m-25 -275 c350 -20 560 -38 560 -46 0 -22 -170 -73 -294
-89 -156 -20 -538 -5 -626 23 -8 3 -27 8 -42 11 -27 6 -28 9 -28 68 l0 61 93
-7 c50 -3 202 -13 337 -21z m-145 -255 c526 -30 692 -45 800 -74 l50 -14 -35
-15 c-89 -39 -198 -52 -425 -52 -272 0 -452 26 -588 84 -41 18 -44 22 -42 53
2 18 3 35 4 37 0 2 11 1 24 -2 12 -3 108 -11 212 -17z m-158 -274 c451 -86
948 -129 1650 -143 183 -3 330 -10 327 -15 -3 -4 -22 -17 -43 -28 -191 -97
-1144 -103 -1752 -10 -198 30 -269 48 -269 69 0 10 -13 36 -30 59 -37 52 -49
92 -26 92 9 0 73 -11 143 -24z"/>
<path d="M9015 4484 c-377 -212 -607 -428 -743 -699 -43 -87 -86 -213 -97
-287 l-7 -47 83 28 c176 59 333 140 527 268 68 46 112 82 112 92 0 52 94 140
187 176 37 15 51 30 107 119 102 160 127 236 112 339 -7 43 -8 45 -49 50 -136
20 -124 22 -232 -39z"/>
</g>
</svg>
